{
    "asset" : {
        "generator" : "Khronos glTF Blender I/O v1.4.40",
        "version" : "2.0"
    },
    "scene" : 0,
    "scenes" : [
        {
            "name" : "Scene",
            "nodes" : [
                0,
                1,
                2,
                3,
                4,
                5,
                6,
                7,
                8,
                9,
                10,
                11,
                12,
                13
            ]
        }
    ],
    "nodes" : [
        {
            "mesh" : 0,
            "name" : "bus",
            "scale" : [
                -3,
                1,
                1
            ],
            "translation" : [
                0,
                1.399999976158142,
                0
            ]
        },
        {
            "name" : "espelhoD",
            "rotation" : [
                0.16907575726509094,
                0.7558803558349609,
                -0.27217137813568115,
                0.570947527885437
            ],
            "translation" : [
                2.799999952316284,
                5.903861999511719,
                -1.0054539442062378
            ]
        },
        {
            "name" : "Camera",
            "rotation" : [
                0.483536034822464,
                0.33687159419059753,
                -0.20870360732078552,
                0.7804827094078064
            ],
            "translation" : [
                7.358891487121582,
                4.958309173583984,
                6.925790786743164
            ]
        },
        {
            "mesh" : 1,
            "name" : "roda",
            "rotation" : [
                0.7071068286895752,
                0,
                0,
                0.7071068286895752
            ],
            "scale" : [
                0.4000000059604645,
                -0.15000000596046448,
                0.4000000059604645
            ],
            "translation" : [
                2,
                0.4000000059604645,
                -0.8999999761581421
            ]
        },
        {
            "mesh" : 2,
            "name" : "roda2",
            "rotation" : [
                0.7071068286895752,
                0,
                0,
                0.7071068286895752
            ],
            "scale" : [
                0.4000000059604645,
                -0.15000000596046448,
                0.4000000059604645
            ],
            "translation" : [
                -2,
                0.4000000059604645,
                -0.8999999761581421
            ]
        },
        {
            "mesh" : 3,
            "name" : "roda3",
            "rotation" : [
                0.7071068286895752,
                0,
                0,
                0.7071068286895752
            ],
            "scale" : [
                0.4000000059604645,
                -0.15000000596046448,
                0.4000000059604645
            ],
            "translation" : [
                2,
                0.4000000059604645,
                0.8999999761581421
            ]
        },
        {
            "mesh" : 4,
            "name" : "roda4",
            "rotation" : [
                0.7071068286895752,
                0,
                0,
                0.7071068286895752
            ],
            "scale" : [
                0.4000000059604645,
                -0.15000000596046448,
                0.4000000059604645
            ],
            "translation" : [
                -2,
                0.4000000059604645,
                0.8999999761581421
            ]
        },
        {
            "mesh" : 5,
            "name" : "RetroEs1",
            "scale" : [
                0.05000000074505806,
                0.05000000074505806,
                0.15000000596046448
            ],
            "translation" : [
                2.799999952316284,
                2,
                -1.100000023841858
            ]
        },
        {
            "mesh" : 6,
            "name" : "RetroD",
            "scale" : [
                0.05000000074505806,
                0.05000000074505806,
                0.15000000596046448
            ],
            "translation" : [
                2.799999952316284,
                2,
                1.100000023841858
            ]
        },
        {
            "mesh" : 7,
            "name" : "EspD",
            "rotation" : [
                0,
                0.13052619993686676,
                0,
                0.9914448857307434
            ],
            "scale" : [
                0.05000000074505806,
                0.30000001192092896,
                0.10000000149011612
            ],
            "translation" : [
                2.799999952316284,
                1.649999976158142,
                -1.149999976158142
            ]
        },
        {
            "mesh" : 8,
            "name" : "EspD.001",
            "rotation" : [
                0,
                -0.13052619993686676,
                0,
                0.9914448857307434
            ],
            "scale" : [
                0.05000000074505806,
                0.30000001192092896,
                0.10000000149011612
            ],
            "translation" : [
                2.799999952316284,
                1.649999976158142,
                1.149999976158142
            ]
        },
        {
            "mesh" : 9,
            "name" : "bus.001",
            "scale" : [
                -3,
                1,
                1
            ],
            "translation" : [
                0,
                1.399999976158142,
                -3.5
            ]
        },
        {
            "name" : "espelhoD.001",
            "rotation" : [
                0.16907575726509094,
                0.7558803558349609,
                -0.27217137813568115,
                0.570947527885437
            ],
            "translation" : [
                4.1617231369018555,
                6.136219024658203,
                2.9362311363220215
            ]
        },
        {
            "mesh" : 10,
            "name" : "bus.002",
            "scale" : [
                -3,
                1,
                1
            ],
            "translation" : [
                0,
                1.399999976158142,
                3.5
            ]
        }
    ],
    "materials" : [
        {
            "doubleSided" : true,
            "name" : "Material",
            "pbrMetallicRoughness" : {
                "baseColorFactor" : [
                    0.800000011920929,
                    0.800000011920929,
                    0.800000011920929,
                    1
                ],
                "metallicFactor" : 0,
                "roughnessFactor" : 0.4000000059604645
            }
        }
    ],
    "meshes" : [
        {
            "name" : "Cube",
            "primitives" : [
                {
                    "attributes" : {
                        "POSITION" : 0,
                        "NORMAL" : 1,
                        "TEXCOORD_0" : 2,
                        "COLOR_0" : 3
                    },
                    "indices" : 4,
                    "material" : 0
                }
            ]
        },
        {
            "name" : "Cilindro",
            "primitives" : [
                {
                    "attributes" : {
                        "POSITION" : 5,
                        "NORMAL" : 6,
                        "TEXCOORD_0" : 7
                    },
                    "indices" : 8
                }
            ]
        },
        {
            "name" : "Cilindro.001",
            "primitives" : [
                {
                    "attributes" : {
                        "POSITION" : 9,
                        "NORMAL" : 10,
                        "TEXCOORD_0" : 11
                    },
                    "indices" : 8
                }
            ]
        },
        {
            "name" : "Cilindro.002",
            "primitives" : [
                {
                    "attributes" : {
                        "POSITION" : 12,
                        "NORMAL" : 13,
                        "TEXCOORD_0" : 14
                    },
                    "indices" : 8
                }
            ]
        },
        {
            "name" : "Cilindro.003",
            "primitives" : [
                {
                    "attributes" : {
                        "POSITION" : 15,
                        "NORMAL" : 16,
                        "TEXCOORD_0" : 17
                    },
                    "indices" : 8
                }
            ]
        },
        {
            "name" : "Cubo",
            "primitives" : [
                {
                    "attributes" : {
                        "POSITION" : 18,
                        "NORMAL" : 19,
                        "TEXCOORD_0" : 20
                    },
                    "indices" : 21
                }
            ]
        },
        {
            "name" : "Cubo.001",
            "primitives" : [
                {
                    "attributes" : {
                        "POSITION" : 22,
                        "NORMAL" : 23,
                        "TEXCOORD_0" : 24
                    },
                    "indices" : 21
                }
            ]
        },
        {
            "name" : "Cubo.002",
            "primitives" : [
                {
                    "attributes" : {
                        "POSITION" : 25,
                        "NORMAL" : 26,
                        "TEXCOORD_0" : 27
                    },
                    "indices" : 21
                }
            ]
        },
        {
            "name" : "Cubo.003",
            "primitives" : [
                {
                    "attributes" : {
                        "POSITION" : 28,
                        "NORMAL" : 29,
                        "TEXCOORD_0" : 30
                    },
                    "indices" : 21
                }
            ]
        },
        {
            "name" : "Cube.001",
            "primitives" : [
                {
                    "attributes" : {
                        "POSITION" : 31,
                        "NORMAL" : 32,
                        "TEXCOORD_0" : 33,
                        "TEXCOORD_1" : 34,
                        "COLOR_0" : 35
                    },
                    "indices" : 36,
                    "material" : 0
                }
            ]
        },
        {
            "name" : "Cube.002",
            "primitives" : [
                {
                    "attributes" : {
                        "POSITION" : 37,
                        "NORMAL" : 38,
                        "TEXCOORD_0" : 39,
                        "TEXCOORD_1" : 40,
                        "COLOR_0" : 41
                    },
                    "indices" : 36,
                    "material" : 0
                }
            ]
        }
    ],
    "accessors" : [
        {
            "bufferView" : 0,
            "componentType" : 5126,
            "count" : 24,
            "max" : [
                1,
                1,
                1
            ],
            "min" : [
                -1,
                -1,
                -1
            ],
            "type" : "VEC3"
        },
        {
            "bufferView" : 1,
            "componentType" : 5126,
            "count" : 24,
            "type" : "VEC3"
        },
        {
            "bufferView" : 2,
            "componentType" : 5126,
            "count" : 24,
            "type" : "VEC2"
        },
        {
            "bufferView" : 3,
            "componentType" : 5123,
            "count" : 24,
            "normalized" : true,
            "type" : "VEC4"
        },
        {
            "bufferView" : 4,
            "componentType" : 5123,
            "count" : 36,
            "type" : "SCALAR"
        },
        {
            "bufferView" : 5,
            "componentType" : 5126,
            "count" : 192,
            "max" : [
                1,
                1,
                1
            ],
            "min" : [
                -1,
                -1,
                -1
            ],
            "type" : "VEC3"
        },
        {
            "bufferView" : 6,
            "componentType" : 5126,
            "count" : 192,
            "type" : "VEC3"
        },
        {
            "bufferView" : 7,
            "componentType" : 5126,
            "count" : 192,
            "type" : "VEC2"
        },
        {
            "bufferView" : 8,
            "componentType" : 5123,
            "count" : 372,
            "type" : "SCALAR"
        },
        {
            "bufferView" : 9,
            "componentType" : 5126,
            "count" : 192,
            "max" : [
                1,
                1,
                1
            ],
            "min" : [
                -1,
                -1,
                -1
            ],
            "type" : "VEC3"
        },
        {
            "bufferView" : 10,
            "componentType" : 5126,
            "count" : 192,
            "type" : "VEC3"
        },
        {
            "bufferView" : 11,
            "componentType" : 5126,
            "count" : 192,
            "type" : "VEC2"
        },
        {
            "bufferView" : 12,
            "componentType" : 5126,
            "count" : 192,
            "max" : [
                1,
                1,
                1
            ],
            "min" : [
                -1,
                -1,
                -1
            ],
            "type" : "VEC3"
        },
        {
            "bufferView" : 13,
            "componentType" : 5126,
            "count" : 192,
            "type" : "VEC3"
        },
        {
            "bufferView" : 14,
            "componentType" : 5126,
            "count" : 192,
            "type" : "VEC2"
        },
        {
            "bufferView" : 15,
            "componentType" : 5126,
            "count" : 192,
            "max" : [
                1,
                1,
                1
            ],
            "min" : [
                -1,
                -1,
                -1
            ],
            "type" : "VEC3"
        },
        {
            "bufferView" : 16,
            "componentType" : 5126,
            "count" : 192,
            "type" : "VEC3"
        },
        {
            "bufferView" : 17,
            "componentType" : 5126,
            "count" : 192,
            "type" : "VEC2"
        },
        {
            "bufferView" : 18,
            "componentType" : 5126,
            "count" : 24,
            "max" : [
                1,
                1,
                1
            ],
            "min" : [
                -1,
                -1,
                -1
            ],
            "type" : "VEC3"
        },
        {
            "bufferView" : 19,
            "componentType" : 5126,
            "count" : 24,
            "type" : "VEC3"
        },
        {
            "bufferView" : 20,
            "componentType" : 5126,
            "count" : 24,
            "type" : "VEC2"
        },
        {
            "bufferView" : 21,
            "componentType" : 5123,
            "count" : 36,
            "type" : "SCALAR"
        },
        {
            "bufferView" : 22,
            "componentType" : 5126,
            "count" : 24,
            "max" : [
                1,
                1,
                1
            ],
            "min" : [
                -1,
                -1,
                -1
            ],
            "type" : "VEC3"
        },
        {
            "bufferView" : 23,
            "componentType" : 5126,
            "count" : 24,
            "type" : "VEC3"
        },
        {
            "bufferView" : 24,
            "componentType" : 5126,
            "count" : 24,
            "type" : "VEC2"
        },
        {
            "bufferView" : 25,
            "componentType" : 5126,
            "count" : 24,
            "max" : [
                1,
                1,
                1
            ],
            "min" : [
                -1,
                -1,
                -1
            ],
            "type" : "VEC3"
        },
        {
            "bufferView" : 26,
            "componentType" : 5126,
            "count" : 24,
            "type" : "VEC3"
        },
        {
            "bufferView" : 27,
            "componentType" : 5126,
            "count" : 24,
            "type" : "VEC2"
        },
        {
            "bufferView" : 28,
            "componentType" : 5126,
            "count" : 24,
            "max" : [
                1,
                1,
                1
            ],
            "min" : [
                -1,
                -1,
                -1
            ],
            "type" : "VEC3"
        },
        {
            "bufferView" : 29,
            "componentType" : 5126,
            "count" : 24,
            "type" : "VEC3"
        },
        {
            "bufferView" : 30,
            "componentType" : 5126,
            "count" : 24,
            "type" : "VEC2"
        },
        {
            "bufferView" : 31,
            "componentType" : 5126,
            "count" : 888,
            "max" : [
                1,
                1,
                1.259533166885376
            ],
            "min" : [
                -1,
                -1.399999976158142,
                -1.2595336437225342
            ],
            "type" : "VEC3"
        },
        {
            "bufferView" : 32,
            "componentType" : 5126,
            "count" : 888,
            "type" : "VEC3"
        },
        {
            "bufferView" : 33,
            "componentType" : 5126,
            "count" : 888,
            "type" : "VEC2"
        },
        {
            "bufferView" : 34,
            "componentType" : 5126,
            "count" : 888,
            "type" : "VEC2"
        },
        {
            "bufferView" : 35,
            "componentType" : 5123,
            "count" : 888,
            "normalized" : true,
            "type" : "VEC4"
        },
        {
            "bufferView" : 36,
            "componentType" : 5123,
            "count" : 1668,
            "type" : "SCALAR"
        },
        {
            "bufferView" : 37,
            "componentType" : 5126,
            "count" : 888,
            "max" : [
                1,
                1,
                1.259533166885376
            ],
            "min" : [
                -1,
                -1.399999976158142,
                -1.2595336437225342
            ],
            "type" : "VEC3"
        },
        {
            "bufferView" : 38,
            "componentType" : 5126,
            "count" : 888,
            "type" : "VEC3"
        },
        {
            "bufferView" : 39,
            "componentType" : 5126,
            "count" : 888,
            "type" : "VEC2"
        },
        {
            "bufferView" : 40,
            "componentType" : 5126,
            "count" : 888,
            "type" : "VEC2"
        },
        {
            "bufferView" : 41,
            "componentType" : 5123,
            "count" : 888,
            "normalized" : true,
            "type" : "VEC4"
        }
    ],
    "bufferViews" : [
        {
            "buffer" : 0,
            "byteLength" : 288,
            "byteOffset" : 0
        },
        {
            "buffer" : 0,
            "byteLength" : 288,
            "byteOffset" : 288
        },
        {
            "buffer" : 0,
            "byteLength" : 192,
            "byteOffset" : 576
        },
        {
            "buffer" : 0,
            "byteLength" : 192,
            "byteOffset" : 768
        },
        {
            "buffer" : 0,
            "byteLength" : 72,
            "byteOffset" : 960
        },
        {
            "buffer" : 0,
            "byteLength" : 2304,
            "byteOffset" : 1032
        },
        {
            "buffer" : 0,
            "byteLength" : 2304,
            "byteOffset" : 3336
        },
        {
            "buffer" : 0,
            "byteLength" : 1536,
            "byteOffset" : 5640
        },
        {
            "buffer" : 0,
            "byteLength" : 744,
            "byteOffset" : 7176
        },
        {
            "buffer" : 0,
            "byteLength" : 2304,
            "byteOffset" : 7920
        },
        {
            "buffer" : 0,
            "byteLength" : 2304,
            "byteOffset" : 10224
        },
        {
            "buffer" : 0,
            "byteLength" : 1536,
            "byteOffset" : 12528
        },
        {
            "buffer" : 0,
            "byteLength" : 2304,
            "byteOffset" : 14064
        },
        {
            "buffer" : 0,
            "byteLength" : 2304,
            "byteOffset" : 16368
        },
        {
            "buffer" : 0,
            "byteLength" : 1536,
            "byteOffset" : 18672
        },
        {
            "buffer" : 0,
            "byteLength" : 2304,
            "byteOffset" : 20208
        },
        {
            "buffer" : 0,
            "byteLength" : 2304,
            "byteOffset" : 22512
        },
        {
            "buffer" : 0,
            "byteLength" : 1536,
            "byteOffset" : 24816
        },
        {
            "buffer" : 0,
            "byteLength" : 288,
            "byteOffset" : 26352
        },
        {
            "buffer" : 0,
            "byteLength" : 288,
            "byteOffset" : 26640
        },
        {
            "buffer" : 0,
            "byteLength" : 192,
            "byteOffset" : 26928
        },
        {
            "buffer" : 0,
            "byteLength" : 72,
            "byteOffset" : 27120
        },
        {
            "buffer" : 0,
            "byteLength" : 288,
            "byteOffset" : 27192
        },
        {
            "buffer" : 0,
            "byteLength" : 288,
            "byteOffset" : 27480
        },
        {
            "buffer" : 0,
            "byteLength" : 192,
            "byteOffset" : 27768
        },
        {
            "buffer" : 0,
            "byteLength" : 288,
            "byteOffset" : 27960
        },
        {
            "buffer" : 0,
            "byteLength" : 288,
            "byteOffset" : 28248
        },
        {
            "buffer" : 0,
            "byteLength" : 192,
            "byteOffset" : 28536
        },
        {
            "buffer" : 0,
            "byteLength" : 288,
            "byteOffset" : 28728
        },
        {
            "buffer" : 0,
            "byteLength" : 288,
            "byteOffset" : 29016
        },
        {
            "buffer" : 0,
            "byteLength" : 192,
            "byteOffset" : 29304
        },
        {
            "buffer" : 0,
            "byteLength" : 10656,
            "byteOffset" : 29496
        },
        {
            "buffer" : 0,
            "byteLength" : 10656,
            "byteOffset" : 40152
        },
        {
            "buffer" : 0,
            "byteLength" : 7104,
            "byteOffset" : 50808
        },
        {
            "buffer" : 0,
            "byteLength" : 7104,
            "byteOffset" : 57912
        },
        {
            "buffer" : 0,
            "byteLength" : 7104,
            "byteOffset" : 65016
        },
        {
            "buffer" : 0,
            "byteLength" : 3336,
            "byteOffset" : 72120
        },
        {
            "buffer" : 0,
            "byteLength" : 10656,
            "byteOffset" : 75456
        },
        {
            "buffer" : 0,
            "byteLength" : 10656,
            "byteOffset" : 86112
        },
        {
            "buffer" : 0,
            "byteLength" : 7104,
            "byteOffset" : 96768
        },
        {
            "buffer" : 0,
            "byteLength" : 7104,
            "byteOffset" : 103872
        },
        {
            "buffer" : 0,
            "byteLength" : 7104,
            "byteOffset" : 110976
        }
    ],
    "buffers" : [
        {
            "byteLength" : 118080,
            "uri" : "data:application/octet-stream;base64,"
        }
    ]
}
