{
    "asset" : {
        "generator" : "Khronos glTF Blender I/O v1.4.40",
        "version" : "2.0"
    },
    "scene" : 0,
    "scenes" : [
        {
            "name" : "Scene",
            "nodes" : [
                0,
                1,
                2,
                3,
                4,
                5,
                6,
                7,
                8
            ]
        }
    ],
    "nodes" : [
        {
            "name" : "Light",
            "rotation" : [
                0.16907575726509094,
                0.7558803558349609,
                -0.27217137813568115,
                0.570947527885437
            ],
            "translation" : [
                4.076245307922363,
                5.903861999511719,
                -1.0054539442062378
            ]
        },
        {
            "name" : "Camera",
            "rotation" : [
                0.483536034822464,
                0.33687159419059753,
                -0.20870360732078552,
                0.7804827094078064
            ],
            "translation" : [
                7.358891487121582,
                4.958309173583984,
                6.925790786743164
            ]
        },
        {
            "mesh" : 0,
            "name" : "Cilindroesquerda",
            "scale" : [
                1.2000000476837158,
                2,
                0.20000000298023224
            ],
            "translation" : [
                0,
                2,
                -3.25
            ]
        },
        {
            "mesh" : 1,
            "name" : "Cilindrodireita",
            "scale" : [
                1.2000000476837158,
                2,
                0.20000000298023224
            ],
            "translation" : [
                0,
                2,
                3.25
            ]
        },
        {
            "mesh" : 2,
            "name" : "Teto",
            "scale" : [
                1.2999999523162842,
                0.10000000149011612,
                3.5999999046325684
            ],
            "translation" : [
                0,
                4.099999904632568,
                0
            ]
        },
        {
            "mesh" : 3,
            "name" : "baseBanco",
            "scale" : [
                0.5,
                0.10000000149011612,
                3
            ],
            "translation" : [
                -0.5,
                1,
                0
            ]
        },
        {
            "mesh" : 4,
            "name" : "Costas",
            "scale" : [
                0.05000000074505806,
                2,
                3.25
            ],
            "translation" : [
                -1.2000000476837158,
                2,
                0
            ]
        },
        {
            "mesh" : 5,
            "name" : "peEsq",
            "scale" : [
                0.4000000059604645,
                0.44999998807907104,
                0.05000000074505806
            ],
            "translation" : [
                -0.5,
                0.44999998807907104,
                -2.0999999046325684
            ]
        },
        {
            "mesh" : 6,
            "name" : "peDir",
            "scale" : [
                0.4000000059604645,
                0.44999998807907104,
                0.05000000074505806
            ],
            "translation" : [
                -0.5,
                0.44999998807907104,
                2.0999999046325684
            ]
        }
    ],
    "meshes" : [
        {
            "name" : "Cilindroesquerda",
            "primitives" : [
                {
                    "attributes" : {
                        "POSITION" : 0,
                        "NORMAL" : 1,
                        "TEXCOORD_0" : 2
                    },
                    "indices" : 3
                }
            ]
        },
        {
            "name" : "Cilindrodireita",
            "primitives" : [
                {
                    "attributes" : {
                        "POSITION" : 4,
                        "NORMAL" : 5,
                        "TEXCOORD_0" : 6
                    },
                    "indices" : 3
                }
            ]
        },
        {
            "name" : "Cubo",
            "primitives" : [
                {
                    "attributes" : {
                        "POSITION" : 7,
                        "NORMAL" : 8,
                        "TEXCOORD_0" : 9
                    },
                    "indices" : 10
                }
            ]
        },
        {
            "name" : "Cubo.001",
            "primitives" : [
                {
                    "attributes" : {
                        "POSITION" : 11,
                        "NORMAL" : 12,
                        "TEXCOORD_0" : 13
                    },
                    "indices" : 14
                }
            ]
        },
        {
            "name" : "Cubo.002",
            "primitives" : [
                {
                    "attributes" : {
                        "POSITION" : 15,
                        "NORMAL" : 16,
                        "TEXCOORD_0" : 17
                    },
                    "indices" : 14
                }
            ]
        },
        {
            "name" : "Cubo.003",
            "primitives" : [
                {
                    "attributes" : {
                        "POSITION" : 18,
                        "NORMAL" : 19,
                        "TEXCOORD_0" : 20
                    },
                    "indices" : 14
                }
            ]
        },
        {
            "name" : "Cubo.004",
            "primitives" : [
                {
                    "attributes" : {
                        "POSITION" : 21,
                        "NORMAL" : 22,
                        "TEXCOORD_0" : 23
                    },
                    "indices" : 14
                }
            ]
        }
    ],
    "accessors" : [
        {
            "bufferView" : 0,
            "componentType" : 5126,
            "count" : 192,
            "max" : [
                1,
                1,
                1
            ],
            "min" : [
                -1,
                -1,
                -1
            ],
            "type" : "VEC3"
        },
        {
            "bufferView" : 1,
            "componentType" : 5126,
            "count" : 192,
            "type" : "VEC3"
        },
        {
            "bufferView" : 2,
            "componentType" : 5126,
            "count" : 192,
            "type" : "VEC2"
        },
        {
            "bufferView" : 3,
            "componentType" : 5123,
            "count" : 372,
            "type" : "SCALAR"
        },
        {
            "bufferView" : 4,
            "componentType" : 5126,
            "count" : 192,
            "max" : [
                1,
                1,
                1
            ],
            "min" : [
                -1,
                -1,
                -1
            ],
            "type" : "VEC3"
        },
        {
            "bufferView" : 5,
            "componentType" : 5126,
            "count" : 192,
            "type" : "VEC3"
        },
        {
            "bufferView" : 6,
            "componentType" : 5126,
            "count" : 192,
            "type" : "VEC2"
        },
        {
            "bufferView" : 7,
            "componentType" : 5126,
            "count" : 48,
            "max" : [
                1.4615384340286255,
                1,
                1
            ],
            "min" : [
                -1,
                -1,
                -1
            ],
            "type" : "VEC3"
        },
        {
            "bufferView" : 8,
            "componentType" : 5126,
            "count" : 48,
            "type" : "VEC3"
        },
        {
            "bufferView" : 9,
            "componentType" : 5126,
            "count" : 48,
            "type" : "VEC2"
        },
        {
            "bufferView" : 10,
            "componentType" : 5123,
            "count" : 72,
            "type" : "SCALAR"
        },
        {
            "bufferView" : 11,
            "componentType" : 5126,
            "count" : 24,
            "max" : [
                1,
                1,
                1
            ],
            "min" : [
                -1,
                -1,
                -1
            ],
            "type" : "VEC3"
        },
        {
            "bufferView" : 12,
            "componentType" : 5126,
            "count" : 24,
            "type" : "VEC3"
        },
        {
            "bufferView" : 13,
            "componentType" : 5126,
            "count" : 24,
            "type" : "VEC2"
        },
        {
            "bufferView" : 14,
            "componentType" : 5123,
            "count" : 36,
            "type" : "SCALAR"
        },
        {
            "bufferView" : 15,
            "componentType" : 5126,
            "count" : 24,
            "max" : [
                1,
                1,
                1
            ],
            "min" : [
                -1,
                -1,
                -1
            ],
            "type" : "VEC3"
        },
        {
            "bufferView" : 16,
            "componentType" : 5126,
            "count" : 24,
            "type" : "VEC3"
        },
        {
            "bufferView" : 17,
            "componentType" : 5126,
            "count" : 24,
            "type" : "VEC2"
        },
        {
            "bufferView" : 18,
            "componentType" : 5126,
            "count" : 24,
            "max" : [
                1,
                1,
                1
            ],
            "min" : [
                -1,
                -1,
                -1
            ],
            "type" : "VEC3"
        },
        {
            "bufferView" : 19,
            "componentType" : 5126,
            "count" : 24,
            "type" : "VEC3"
        },
        {
            "bufferView" : 20,
            "componentType" : 5126,
            "count" : 24,
            "type" : "VEC2"
        },
        {
            "bufferView" : 21,
            "componentType" : 5126,
            "count" : 24,
            "max" : [
                1,
                1,
                1
            ],
            "min" : [
                -1,
                -1,
                -1
            ],
            "type" : "VEC3"
        },
        {
            "bufferView" : 22,
            "componentType" : 5126,
            "count" : 24,
            "type" : "VEC3"
        },
        {
            "bufferView" : 23,
            "componentType" : 5126,
            "count" : 24,
            "type" : "VEC2"
        }
    ],
    "bufferViews" : [
        {
            "buffer" : 0,
            "byteLength" : 2304,
            "byteOffset" : 0
        },
        {
            "buffer" : 0,
            "byteLength" : 2304,
            "byteOffset" : 2304
        },
        {
            "buffer" : 0,
            "byteLength" : 1536,
            "byteOffset" : 4608
        },
        {
            "buffer" : 0,
            "byteLength" : 744,
            "byteOffset" : 6144
        },
        {
            "buffer" : 0,
            "byteLength" : 2304,
            "byteOffset" : 6888
        },
        {
            "buffer" : 0,
            "byteLength" : 2304,
            "byteOffset" : 9192
        },
        {
            "buffer" : 0,
            "byteLength" : 1536,
            "byteOffset" : 11496
        },
        {
            "buffer" : 0,
            "byteLength" : 576,
            "byteOffset" : 13032
        },
        {
            "buffer" : 0,
            "byteLength" : 576,
            "byteOffset" : 13608
        },
        {
            "buffer" : 0,
            "byteLength" : 384,
            "byteOffset" : 14184
        },
        {
            "buffer" : 0,
            "byteLength" : 144,
            "byteOffset" : 14568
        },
        {
            "buffer" : 0,
            "byteLength" : 288,
            "byteOffset" : 14712
        },
        {
            "buffer" : 0,
            "byteLength" : 288,
            "byteOffset" : 15000
        },
        {
            "buffer" : 0,
            "byteLength" : 192,
            "byteOffset" : 15288
        },
        {
            "buffer" : 0,
            "byteLength" : 72,
            "byteOffset" : 15480
        },
        {
            "buffer" : 0,
            "byteLength" : 288,
            "byteOffset" : 15552
        },
        {
            "buffer" : 0,
            "byteLength" : 288,
            "byteOffset" : 15840
        },
        {
            "buffer" : 0,
            "byteLength" : 192,
            "byteOffset" : 16128
        },
        {
            "buffer" : 0,
            "byteLength" : 288,
            "byteOffset" : 16320
        },
        {
            "buffer" : 0,
            "byteLength" : 288,
            "byteOffset" : 16608
        },
        {
            "buffer" : 0,
            "byteLength" : 192,
            "byteOffset" : 16896
        },
        {
            "buffer" : 0,
            "byteLength" : 288,
            "byteOffset" : 17088
        },
        {
            "buffer" : 0,
            "byteLength" : 288,
            "byteOffset" : 17376
        },
        {
            "buffer" : 0,
            "byteLength" : 192,
            "byteOffset" : 17664
        }
    ],
    "buffers" : [
        {
            "byteLength" : 17856,
            "uri" : "data:application/octet-stream;base64,"
        }
    ]
}
