{
    "asset" : {
        "generator" : "Khronos glTF Blender I/O v1.4.40",
        "version" : "2.0"
    },
    "scene" : 0,
    "scenes" : [
        {
            "name" : "Scene",
            "nodes" : [
                0,
                1,
                2,
                3,
                4
            ]
        }
    ],
    "nodes" : [
        {
            "name" : "Light",
            "rotation" : [
                0.16907575726509094,
                0.7558803558349609,
                -0.27217137813568115,
                0.570947527885437
            ],
            "translation" : [
                4.076245307922363,
                5.903861999511719,
                -1.0054539442062378
            ]
        },
        {
            "name" : "Camera",
            "rotation" : [
                0.483536034822464,
                0.33687159419059753,
                -0.20870360732078552,
                0.7804827094078064
            ],
            "translation" : [
                7.358891487121582,
                4.958309173583984,
                6.925790786743164
            ]
        },
        {
            "mesh" : 0,
            "name" : "Costas",
            "scale" : [
                0.05000000074505806,
                2,
                3.25
            ],
            "translation" : [
                -1.2000000476837158,
                2,
                0
            ]
        },
        {
            "mesh" : 1,
            "name" : "bus.001",
            "rotation" : [
                0,
                -0.7071068286895752,
                0,
                0.7071068286895752
            ],
            "scale" : [
                -4.050000190734863,
                1.3532663583755493,
                1.3497061729431152
            ],
            "translation" : [
                6,
                1.899999976158142,
                0
            ]
        },
        {
            "mesh" : 2,
            "name" : "Cubo.007",
            "rotation" : [
                0,
                0,
                0.08715573698282242,
                0.9961947202682495
            ],
            "scale" : [
                -0.10000000149011612,
                0.375,
                -0.07500000298023224
            ],
            "translation" : [
                3,
                1.5,
                2.5
            ]
        }
    ],
    "materials" : [
        {
            "doubleSided" : true,
            "name" : "Material.001",
            "pbrMetallicRoughness" : {
                "baseColorFactor" : [
                    0.800000011920929,
                    0.800000011920929,
                    0.800000011920929,
                    1
                ],
                "metallicFactor" : 0,
                "roughnessFactor" : 0.4000000059604645
            }
        }
    ],
    "meshes" : [
        {
            "name" : "Cubo.003",
            "primitives" : [
                {
                    "attributes" : {
                        "POSITION" : 0,
                        "NORMAL" : 1,
                        "TEXCOORD_0" : 2
                    },
                    "indices" : 3
                }
            ]
        },
        {
            "name" : "Cube.001",
            "primitives" : [
                {
                    "attributes" : {
                        "POSITION" : 4,
                        "NORMAL" : 5,
                        "TEXCOORD_0" : 6,
                        "TEXCOORD_1" : 7,
                        "COLOR_0" : 8
                    },
                    "indices" : 9,
                    "material" : 0
                }
            ]
        },
        {
            "name" : "Cubo.010",
            "primitives" : [
                {
                    "attributes" : {
                        "POSITION" : 10,
                        "NORMAL" : 11,
                        "TEXCOORD_0" : 12
                    },
                    "indices" : 13
                }
            ]
        }
    ],
    "accessors" : [
        {
            "bufferView" : 0,
            "componentType" : 5126,
            "count" : 528,
            "max" : [
                61.99999237060547,
                1.0999999046325684,
                1.1076922416687012
            ],
            "min" : [
                -1.9999961853027344,
                -1,
                -1.1076922416687012
            ],
            "type" : "VEC3"
        },
        {
            "bufferView" : 1,
            "componentType" : 5126,
            "count" : 528,
            "type" : "VEC3"
        },
        {
            "bufferView" : 2,
            "componentType" : 5126,
            "count" : 528,
            "type" : "VEC2"
        },
        {
            "bufferView" : 3,
            "componentType" : 5123,
            "count" : 960,
            "type" : "SCALAR"
        },
        {
            "bufferView" : 4,
            "componentType" : 5126,
            "count" : 888,
            "max" : [
                1,
                1,
                1.259533166885376
            ],
            "min" : [
                -1,
                -1.399999976158142,
                -1.2595336437225342
            ],
            "type" : "VEC3"
        },
        {
            "bufferView" : 5,
            "componentType" : 5126,
            "count" : 888,
            "type" : "VEC3"
        },
        {
            "bufferView" : 6,
            "componentType" : 5126,
            "count" : 888,
            "type" : "VEC2"
        },
        {
            "bufferView" : 7,
            "componentType" : 5126,
            "count" : 888,
            "type" : "VEC2"
        },
        {
            "bufferView" : 8,
            "componentType" : 5123,
            "count" : 888,
            "normalized" : true,
            "type" : "VEC4"
        },
        {
            "bufferView" : 9,
            "componentType" : 5123,
            "count" : 1668,
            "type" : "SCALAR"
        },
        {
            "bufferView" : 10,
            "componentType" : 5126,
            "count" : 2156,
            "max" : [
                6.562950134277344,
                2.4908804893493652,
                12.295333862304688
            ],
            "min" : [
                -3.9411182403564453,
                -4.20998477935791,
                -1
            ],
            "type" : "VEC3"
        },
        {
            "bufferView" : 11,
            "componentType" : 5126,
            "count" : 2156,
            "type" : "VEC3"
        },
        {
            "bufferView" : 12,
            "componentType" : 5126,
            "count" : 2156,
            "type" : "VEC2"
        },
        {
            "bufferView" : 13,
            "componentType" : 5123,
            "count" : 3138,
            "type" : "SCALAR"
        }
    ],
    "bufferViews" : [
        {
            "buffer" : 0,
            "byteLength" : 6336,
            "byteOffset" : 0
        },
        {
            "buffer" : 0,
            "byteLength" : 6336,
            "byteOffset" : 6336
        },
        {
            "buffer" : 0,
            "byteLength" : 4224,
            "byteOffset" : 12672
        },
        {
            "buffer" : 0,
            "byteLength" : 1920,
            "byteOffset" : 16896
        },
        {
            "buffer" : 0,
            "byteLength" : 10656,
            "byteOffset" : 18816
        },
        {
            "buffer" : 0,
            "byteLength" : 10656,
            "byteOffset" : 29472
        },
        {
            "buffer" : 0,
            "byteLength" : 7104,
            "byteOffset" : 40128
        },
        {
            "buffer" : 0,
            "byteLength" : 7104,
            "byteOffset" : 47232
        },
        {
            "buffer" : 0,
            "byteLength" : 7104,
            "byteOffset" : 54336
        },
        {
            "buffer" : 0,
            "byteLength" : 3336,
            "byteOffset" : 61440
        },
        {
            "buffer" : 0,
            "byteLength" : 25872,
            "byteOffset" : 64776
        },
        {
            "buffer" : 0,
            "byteLength" : 25872,
            "byteOffset" : 90648
        },
        {
            "buffer" : 0,
            "byteLength" : 17248,
            "byteOffset" : 116520
        },
        {
            "buffer" : 0,
            "byteLength" : 6276,
            "byteOffset" : 133768
        }
    ],
    "buffers" : [
        {
            "byteLength" : 140044,
            "uri" : "data:application/octet-stream;base64,"
        }
    ]
}
